<?xml version="1.0" encoding="UTF-8"?>
<svg id="Favicone" xmlns="http://www.w3.org/2000/svg" viewBox="0 0 69.9 54.52">
  <defs>
    <style>
      .cls-1 {
        font-size: 63.84px;
      }

      .cls-1, .cls-2, .cls-3, .cls-4, .cls-5 {
        stroke-miterlimit: 10;
      }

      .cls-1, .cls-6, .cls-4, .cls-5 {
        stroke-width: .75px;
      }

      .cls-1, .cls-4 {
        font-family: CenturyGothic, 'Century Gothic';
        stroke: #fbb03b;
      }

      .cls-7 {
        stroke-miterlimit: 4;
      }

      .cls-7, .cls-2, .cls-3, .cls-6, .cls-8, .cls-9, .cls-10, .cls-5 {
        fill: #fbb03b;
        stroke: #000;
      }

      .cls-7, .cls-3, .cls-8, .cls-10 {
        stroke-width: .25px;
      }

      .cls-2, .cls-9 {
        stroke-width: .5px;
      }

      .cls-8 {
        stroke-miterlimit: 4;
      }

      .cls-11 {
        opacity: .27;
      }

      .cls-4 {
        font-size: 37.21px;
      }
    </style>
  </defs>
  <g id="Texte_fond" data-name="Texte fond">
    <text class="cls-4" transform="translate(10.77 41.89) scale(1.43 1)"><tspan x="0" y="0">M</tspan></text>
    <text class="cls-1" transform="translate(9.79 42.6) scale(1.43 1)"><tspan x="0" y="0">v</tspan></text>
  </g>
  <g id="coffre_fort" data-name="coffre fort">
    <g id="barrure_coffre" data-name="barrure coffre">
      <g id="Rectangle_2" data-name="Rectangle 2">
        <rect class="cls-3" x="33.53" y="17.45" width="1.02" height="1.65"/>
        <rect class="cls-10" x="33.61" y="17.54" width=".85" height="1.48"/>
      </g>
      <g id="Rectangle_6" data-name="Rectangle 6">
        <rect class="cls-3" x="33.53" y="23.2" width="1.02" height="1.48"/>
        <rect class="cls-10" x="33.61" y="23.29" width=".85" height="1.32"/>
      </g>
      <g id="Rectangle_3" data-name="Rectangle 3">
        <polygon class="cls-3" points="36 18.11 36.71 18.65 35.74 19.85 35.04 19.31 36 18.11"/>
        <polygon class="cls-7" points="36.02 18.23 36.59 18.66 35.73 19.73 35.16 19.3 36.02 18.23"/>
      </g>
      <g id="Rectangle_9" data-name="Rectangle 9">
        <polygon class="cls-3" points="32.23 22.2 32.83 22.85 31.67 23.86 31.07 23.22 32.23 22.2"/>
        <polygon class="cls-8" points="32.23 22.32 32.71 22.84 31.67 23.75 31.19 23.23 32.23 22.32"/>
      </g>
      <g id="Rectangle_4" data-name="Rectangle 4">
        <rect class="cls-3" x="36.14" y="20.56" width="1.64" height=".87"/>
        <rect class="cls-10" x="36.22" y="20.65" width="1.47" height=".7"/>
      </g>
      <g id="Rectangle_8" data-name="Rectangle 8">
        <rect class="cls-3" x="30.31" y="20.61" width="1.64" height=".87"/>
        <rect class="cls-10" x="30.4" y="20.69" width="1.47" height=".7"/>
      </g>
      <g id="Rectangle_5" data-name="Rectangle 5">
        <polygon class="cls-8" points="36.92 23.31 36.44 23.83 35.35 22.88 35.83 22.35 36.92 23.31"/>
      </g>
      <g id="Rectangle_7" data-name="Rectangle 7">
        <polygon class="cls-3" points="32.83 19.39 32.23 20.04 31.02 18.97 31.62 18.33 32.83 19.39"/>
        <polygon class="cls-8" points="32.71 19.4 32.23 19.92 31.14 18.97 31.62 18.44 32.71 19.4"/>
      </g>
      <g id="Ellipse_3" data-name="Ellipse 3">
        <ellipse class="cls-3" cx="34.04" cy="21.16" rx="2.21" ry="2.23"/>
        <ellipse class="cls-10" cx="34.04" cy="21.16" rx="2.12" ry="2.14"/>
      </g>
    </g>
    <g id="contour_coffre" data-name="contour coffre">
      <line id="Ligne_1" data-name="Ligne 1" class="cls-6" x1="26.31" y1="12.79" x2="43.76" y2="12.79"/>
      <line id="Ligne_2" data-name="Ligne 2" class="cls-6" x1="43.76" y1="12.79" x2="43.76" y2="29.08"/>
      <line id="Ligne_3" data-name="Ligne 3" class="cls-6" x1="43.76" y1="29.08" x2="26.31" y2="29.08"/>
      <line id="Ligne_4" data-name="Ligne 4" class="cls-6" x1="26.31" y1="29.08" x2="26.31" y2="12.79"/>
    </g>
    <g id="contour_porte_coffre" data-name="contour porte coffre">
      <line id="Ligne_5" data-name="Ligne 5" class="cls-6" x1="27.88" y1="14.09" x2="42.42" y2="14.09"/>
      <line id="Ligne_6" data-name="Ligne 6" class="cls-6" x1="42.42" y1="13.88" x2="42.42" y2="27.99"/>
      <line id="Ligne_7" data-name="Ligne 7" class="cls-6" x1="42.42" y1="27.77" x2="27.65" y2="27.77"/>
      <line id="Ligne_8" data-name="Ligne 8" class="cls-6" x1="27.88" y1="27.56" x2="27.88" y2="13.88"/>
    </g>
    <g id="poignee">
      <line id="Ligne_9" data-name="Ligne 9" class="cls-9" x1="40.24" y1="17.62" x2="40.24" y2="24.24"/>
      <g id="Rectangle_1" data-name="Rectangle 1">
        <rect class="cls-2" x="39.64" y="18.28" width="1.19" height="5.28"/>
        <rect class="cls-9" x="39.73" y="18.36" width="1.02" height="5.11"/>
      </g>
    </g>
    <g id="Ellipse_autour_de_barrure" data-name="Ellipse autour de barrure" class="cls-11">
      <ellipse class="cls-5" cx="33.95" cy="21" rx="4.84" ry="4.7"/>
      <ellipse class="cls-6" cx="33.95" cy="21" rx="4.67" ry="4.53"/>
    </g>
  </g>
</svg>