<svg xmlns="http://www.w3.org/2000/svg" width="30" height="34" viewBox="0 0 30 34"><g transform="translate(-1758 -50)"><g transform="translate(1758 54)"><path d="M28.215,26.25H18.791a3.769,3.769,0,0,1-7.539,0H1.829a1.809,1.809,0,0,1-1.7-1.312A2,2,0,0,1,.7,22.875a7.535,7.535,0,0,0,3.015-6V11.25a11.308,11.308,0,0,1,22.616,0v5.625a7.535,7.535,0,0,0,3.015,6,1.77,1.77,0,0,1,.565,2.063A1.809,1.809,0,0,1,28.215,26.25Z" transform="translate(-0.063)" fill="#fff" fill-rule="evenodd"/></g><circle cx="4" cy="4" r="4" transform="translate(1773 50)" fill="#f31111"/></g></svg>